# xmcd
#
# Track frame offsets: 
#        150
#        15935
#        29665
#        49705
#        64835
#        80127
#        97157
#        114095
#        130047
#
# Disc length: 1918 seconds
#
# Revision: 4
# Processed by: cddbd v1.5.1PL0 Copyright (c) Steve Scherf et al.
# Submitted via: ExactAudioCopy v0.95a5
#
DISCID=6f077c09
DTITLE=Various Artist - And So This Is Christmas
DYEAR=1999
DGENRE=Christmas/Holiday
TTITLE0=Babyface - Have Yourself A Merry Little Christmas
TTITLE1=Ricky Martin - Ay, Ay, Ay, It's Christmas
TTITLE2=Gloria Estefan - Love On Layaway
TTITLE3=Celine Dion - I Met An Angel (On Christmas Day)
TTITLE4=Harry Connick Jr - Silver Bells
TTITLE5=Shawn Colvin - I Don't Need Anything This Christmas
TTITLE6=Charlotte Church - Silent Night
TTITLE7=Mary Chapin Carpenter - Bells Are Ringing
TTITLE8=Marc Anthony - Christmas Auld Lange Syne
EXTD=
EXTT0=
EXTT1=
EXTT2=
EXTT3=
EXTT4=
EXTT5=
EXTT6=
EXTT7=
EXTT8=
PLAYORDER=
